<?xml version="1.0" encoding="UTF-8" standalone="no"?>
<!-- Created with Inkscape (http://www.inkscape.org/) -->

<svg
   xmlns:dc="http://purl.org/dc/elements/1.1/"
   xmlns:cc="http://creativecommons.org/ns#"
   xmlns:rdf="http://www.w3.org/1999/02/22-rdf-syntax-ns#"
   xmlns:svg="http://www.w3.org/2000/svg"
   xmlns="http://www.w3.org/2000/svg"
   xmlns:sodipodi="http://sodipodi.sourceforge.net/DTD/sodipodi-0.dtd"
   xmlns:inkscape="http://www.inkscape.org/namespaces/inkscape"
   width="310"
   height="150"
   viewBox="0 0 82.020831 39.687501"
   version="1.1"
   id="svg7315"
   sodipodi:docname="appIcon-wide.svg"
   inkscape:version="0.92.1 r">
  <defs
     id="defs7309" />
  <sodipodi:namedview
     id="base"
     pagecolor="#ffffff"
     bordercolor="#666666"
     borderopacity="1.0"
     inkscape:pageopacity="0.0"
     inkscape:pageshadow="2"
     inkscape:zoom="0.98994949"
     inkscape:cx="113.27082"
     inkscape:cy="46.773707"
     inkscape:document-units="px"
     inkscape:current-layer="layer1"
     showgrid="false"
     units="px"
     inkscape:window-width="1600"
     inkscape:window-height="836"
     inkscape:window-x="0"
     inkscape:window-y="27"
     inkscape:window-maximized="1" />
  <metadata
     id="metadata7312">
    <rdf:RDF>
      <cc:Work
         rdf:about="">
        <dc:format>image/svg+xml</dc:format>
        <dc:type
           rdf:resource="http://purl.org/dc/dcmitype/StillImage" />
        <dc:title></dc:title>
      </cc:Work>
    </rdf:RDF>
  </metadata>
  <g
     inkscape:label="Calque 1"
     inkscape:groupmode="layer"
     id="layer1"
     transform="translate(0,-257.31248)">
    <rect
       style="display:inline;fill:#ef372b;fill-opacity:1;stroke-width:0.18404636"
       id="rect6914"
       width="82.020836"
       height="39.6875"
       x="0"
       y="257.31247" />
    <text
       xml:space="preserve"
       style="font-style:normal;font-variant:normal;font-weight:normal;font-stretch:normal;font-size:7.14847088px;line-height:1.25;font-family:'Domestic Manners';-inkscape-font-specification:'Domestic Manners';text-align:center;letter-spacing:0px;word-spacing:0px;text-anchor:middle;display:inline;fill:#ffffff;fill-opacity:1;stroke:none;stroke-width:0.17871177"
       x="36.284428"
       y="269.49484"
       id="text6934"><tspan
         sodipodi:role="line"
         x="36.284428"
         y="269.49484"
         style="font-style:normal;font-variant:normal;font-weight:normal;font-stretch:normal;font-size:8.57816505px;font-family:'Domestic Manners';-inkscape-font-specification:'Domestic Manners';text-align:center;text-anchor:middle;fill:#ffffff;stroke-width:0.17871177"
         id="tspan6936"
         rotate="0 0 0 0 0 0 0 0 0 0 0 0"
         dy="0"
         dx="0">Edition des</tspan><tspan
         sodipodi:role="line"
         x="36.284428"
         y="280.21756"
         style="font-style:normal;font-variant:normal;font-weight:normal;font-stretch:normal;font-size:8.57816505px;font-family:'Domestic Manners';-inkscape-font-specification:'Domestic Manners';text-align:center;text-anchor:middle;fill:#ffffff;stroke-width:0.17871177"
         id="tspan6940"
         rotate="0 0 0 0 0 0 0 0">comptes</tspan><tspan
         sodipodi:role="line"
         x="36.284428"
         y="290.94025"
         style="font-style:normal;font-variant:normal;font-weight:normal;font-stretch:normal;font-size:8.57816505px;font-family:'Domestic Manners';-inkscape-font-specification:'Domestic Manners';text-align:center;text-anchor:middle;fill:#ffffff;stroke-width:0.17871177"
         id="tspan6942"
         rotate="0 0 0 0 0 0 0">rendus</tspan></text>
    <g
       style="display:inline"
       id="g12"
       transform="matrix(0.00490916,0,0,-0.00573016,61.244421,295.94163)">
      <path
         d="m 200.004,1479.11 v 36 c 31.66,-34.89 90.293,-52.33 175.902,-52.33 92.028,0 163.153,22.38 213.379,67.17 50.211,44.79 75.332,102.31 75.332,172.57 0,49.47 -13.238,91.9 -39.711,127.29 -26.468,35.38 -61.726,60.74 -105.761,76.08 -44.04,15.33 -110.336,30.67 -198.907,46.01 -55.914,9.88 -90.672,18.41 -104.269,25.59 -13.621,7.17 -20.41,17.68 -20.41,31.54 0,36.61 33.136,54.92 99.445,54.92 90.055,0 142.5,-24.99 157.344,-74.96 h 164.031 v 208.56 H 452.348 v -24.87 c -56.403,24 -117.02,36 -181.828,36 -80.165,0 -144.497,-20.41 -192.9731,-61.21 -48.5,-40.79 -72.74221,-90.87 -72.74221,-150.21 0,-63.31 25.74221,-114.12 77.20311,-152.45 51.4692,-38.33 135.3402,-66.93 251.6092,-85.83 56.387,-9.45 94.238,-19.36 113.539,-29.75 19.297,-10.39 28.942,-24.99 28.942,-43.79 0,-20.3 -10.512,-37 -31.543,-50.1 -21.039,-13.12 -50.344,-19.67 -87.95,-19.67 -43.539,0 -80.152,10.02 -109.835,30.06 -29.696,20.04 -45.282,46.87 -46.766,80.53 H 32.2773 v -247.15 z m 1267.666,165.51 v 261.99 c 0,66.3 -4.58,114.17 -13.73,143.61 -9.17,29.44 -24.87,56.53 -47.13,81.27 -22.27,24.74 -56.18,44.91 -101.68,60.49 -45.54,15.59 -102.92,23.38 -172.2,23.38 -178.614,0 -294.645,-56.66 -348.082,-169.96 L 969.656,2012 c 36.604,37.6 80.644,56.41 132.114,56.41 41.56,0 74.69,-11.76 99.45,-35.26 24.74,-23.5 37.11,-53.56 37.11,-90.17 v -43.79 c -62.34,24.24 -117.52,36.37 -165.51,36.37 -86.09,0 -156.367,-23.27 -210.785,-69.77 -54.43,-46.51 -81.64,-104.16 -81.64,-172.93 0,-68.28 25.851,-122.72 77.566,-163.28 51.695,-40.58 113.176,-60.86 184.429,-60.86 68.77,0 134.07,22.38 195.94,67.17 v -56.78 h 345.12 v 165.51 z m -229.34,41.56 c -53.44,-49.98 -101.45,-74.96 -143.98,-74.96 -27.22,0 -49.49,9.39 -66.8,28.2 -17.34,18.8 -25.98,41.31 -25.98,67.54 0,29.19 10.76,51.46 32.29,66.8 21.52,15.33 45.39,23.01 71.62,23.01 33.14,0 77.43,-17.33 132.85,-51.96 z m 529.17,345.86 v -387.42 h -118.75 v -165.51 h 466.84 v 165.51 h -118.74 v 319.14 c 62.82,32.65 118.49,48.98 166.98,48.98 62.35,0 93.52,-39.83 93.52,-119.49 v -414.14 h 348.08 v 165.51 h -118.75 v 319.14 c 59.38,32.65 114.55,48.98 165.51,48.98 64.82,0 97.23,-37.61 97.23,-112.81 v -420.82 h 348.08 v 165.51 h -118.75 v 273.87 c 0,75.2 -6.93,131.36 -20.78,168.47 -13.85,37.11 -39.45,66.67 -76.81,88.69 -37.37,22.01 -85.98,33.03 -145.84,33.03 -100.94,0 -197.68,-32.66 -290.2,-97.97 -50.96,65.31 -122.71,97.97 -215.23,97.97 -77.19,0 -154.88,-23.26 -233.04,-69.77 v 58.64 h -348.1 v -165.51 z m 2139.73,-387.42 v 552.93 h -339.92 v -165.51 h 110.59 v -323.59 c -46.02,-34.14 -88.32,-51.21 -126.92,-51.21 -28.71,0 -48.49,6.55 -59.37,19.66 -10.89,13.11 -16.33,37.48 -16.33,73.11 v 447.54 h -336.21 v -165.51 h 107.61 v -340.37 c 0,-70.86 19.67,-125.72 59.01,-164.62 39.33,-38.89 93.63,-58.33 162.91,-58.33 70.76,0 140.52,23.87 209.3,71.62 v -61.23 h 345.11 v 165.51 h -115.78"
         style="fill:#ffffff;fill-opacity:1;fill-rule:nonzero;stroke:none"
         id="path14"
         inkscape:connector-curvature="0" />
      <path
         d="M 6.3125,0 H 4018.75 V 699.191 H 6.3125 V 0"
         style="fill:#ffffff;fill-opacity:1;fill-rule:nonzero;stroke:none"
         id="path16"
         inkscape:connector-curvature="0" />
      <path
         d="m 233.887,283.82 c 0,-31.25 8.832,-55.269 26.511,-72.07 17.676,-16.801 38.821,-25.191 63.43,-25.191 23.828,0 44.973,8.832 63.43,26.511 18.457,17.68 27.683,42.141 27.683,73.391 0,31.437 -9.421,55.168 -28.269,71.187 -18.856,16.02 -39.992,24.02 -63.43,24.02 -25.195,0 -46.39,-9.418 -63.574,-28.27 C 242.48,334.551 233.887,311.359 233.887,283.82 Z M 521.582,191.238 V 141.73 H 414.941 v 41.598 c -27.734,-30.859 -61.523,-46.289 -101.367,-46.289 -36.914,0 -69.336,12.602 -97.265,37.801 -27.934,25.191 -41.895,61.031 -41.895,107.519 0,46.68 14.356,83.493 43.066,110.45 28.711,26.953 61.129,40.429 97.266,40.429 38.277,0 71.676,-15.238 100.195,-45.707 V 499.738 H 360.449 V 549.25 H 470.605 V 191.238 h 50.977"
         style="fill:#ef372b;fill-opacity:1;fill-rule:nonzero;stroke:none"
         id="path18"
         inkscape:connector-curvature="0" />
      <path
         d="m 811.305,309.898 c -3.91,19.922 -14.258,37.942 -31.055,54.051 -16.805,16.11 -37.402,24.172 -61.816,24.172 -22.266,0 -41.309,-7.281 -57.129,-21.832 -15.821,-14.551 -25.489,-33.348 -29.004,-56.391 z m 57.422,-40.429 H 630.25 c 3.516,-26.18 13.867,-47.367 31.055,-63.578 17.179,-16.211 39.156,-24.313 65.918,-24.313 38.863,0 69.625,15.621 92.285,46.871 l 49.219,-21.679 c -16.016,-24.801 -36.817,-43.211 -62.403,-55.219 -25.594,-12.02 -52.344,-18.02 -80.273,-18.02 -43.36,0 -80.422,13.52 -111.184,40.578 -30.762,27.051 -46.14,63.52 -46.14,109.422 0,43.547 14.984,79.387 44.968,107.52 29.981,28.117 64.407,42.187 103.274,42.187 38.086,0 72.605,-13.718 103.562,-41.168 30.953,-27.441 47.024,-68.308 48.196,-122.601"
         style="fill:#ef372b;fill-opacity:1;fill-rule:nonzero;stroke:none"
         id="path20"
         inkscape:connector-curvature="0" />
      <path
         d="m 1384.09,338.309 h 148.24 c 0.19,-5.27 0.3,-9.957 0.3,-14.059 0,-57.219 -18.75,-103.031 -56.25,-137.398 -37.5,-34.383 -87.01,-51.563 -148.54,-51.563 -73.64,0 -128.51,20.941 -164.65,62.84 -36.13,41.891 -54.2,91.449 -54.2,148.68 0,59.961 18.46,109.769 55.38,149.41 36.91,39.652 87.01,59.48 150.29,59.48 56.83,0 104.49,-17.289 142.97,-51.859 v 45.41 h 51.85 V 415.359 h -51.85 c -9.77,22.469 -27.1,42.442 -52,59.922 -24.91,17.481 -53.37,26.219 -85.41,26.219 -44.53,0 -79.68,-15.039 -105.46,-45.121 -25.79,-30.078 -38.68,-66.309 -38.68,-108.688 0,-48.632 14.7,-87.211 44.1,-115.722 29.39,-28.52 64.79,-42.778 106.2,-42.778 32.41,0 61.33,9.039 86.72,27.098 25.38,18.07 40.23,41.75 44.53,71.051 h -73.54 v 50.969"
         style="fill:#ef372b;fill-opacity:1;fill-rule:nonzero;stroke:none"
         id="path22"
         inkscape:connector-curvature="0" />
      <path
         d="m 1655.36,191.238 v 184.571 h -57.13 v 49.519 h 101.66 v -63.867 c 6.25,16.598 14.94,30.367 26.08,41.309 11.13,10.929 22.89,18.16 35.3,21.679 12.4,3.512 29.34,5.27 50.83,5.27 h 14.65 v -56.25 h -11.13 c -28.33,0 -49.47,-2.828 -63.43,-8.5 -13.97,-5.66 -24.32,-15.957 -31.06,-30.899 -6.74,-14.949 -10.1,-41.75 -10.1,-80.422 v -62.41 h 61.81 V 141.73 h -174.61 v 49.508 h 57.13"
         style="fill:#ef372b;fill-opacity:1;fill-rule:nonzero;stroke:none"
         id="path24"
         inkscape:connector-curvature="0" />
      <path
         d="m 2094.11,309.898 c -3.92,19.922 -14.26,37.942 -31.06,54.051 -16.8,16.11 -37.4,24.172 -61.82,24.172 -22.27,0 -41.31,-7.281 -57.13,-21.832 -15.82,-14.551 -25.49,-33.348 -29,-56.391 z m 57.42,-40.429 h -238.48 c 3.51,-26.18 13.86,-47.367 31.05,-63.578 17.18,-16.211 39.16,-24.313 65.92,-24.313 38.86,0 69.62,15.621 92.29,46.871 l 49.22,-21.679 c -16.02,-24.801 -36.82,-43.211 -62.4,-55.219 -25.6,-12.02 -52.35,-18.02 -80.28,-18.02 -43.36,0 -80.42,13.52 -111.18,40.578 -30.77,27.051 -46.15,63.52 -46.15,109.422 0,43.547 14.99,79.387 44.97,107.52 29.98,28.117 64.41,42.187 103.28,42.187 38.09,0 72.6,-13.718 103.56,-41.168 30.95,-27.441 47.03,-68.308 48.2,-122.601"
         style="fill:#ef372b;fill-opacity:1;fill-rule:nonzero;stroke:none"
         id="path26"
         inkscape:connector-curvature="0" />
      <path
         d="m 2318.77,425.328 v -34.277 c 35.75,25.777 68.36,38.668 97.86,38.668 18.35,0 33.53,-4.348 45.54,-13.039 12.01,-8.692 19.89,-19.328 23.6,-31.93 3.7,-12.602 5.56,-31.012 5.56,-55.219 V 191.238 h 47.76 V 141.73 h -103.42 v 185.45 c 0,21.488 -3.22,35.5 -9.67,42.039 -6.44,6.551 -14.35,9.82 -23.73,9.82 -24.61,0 -52.44,-12.008 -83.5,-36.039 V 191.238 h 48.93 V 141.73 h -154.39 v 49.508 h 49.8 v 184.571 h -49.8 v 49.519 h 105.46"
         style="fill:#ef372b;fill-opacity:1;fill-rule:nonzero;stroke:none"
         id="path28"
         inkscape:connector-curvature="0" />
      <path
         d="m 2646.27,283.68 c 0,-27.989 8.73,-50.93 26.22,-68.821 17.48,-17.89 38.82,-26.839 64.02,-26.839 25.58,0 47.01,9.039 64.3,27.128 17.28,18.082 25.93,40.922 25.93,68.532 0,27.789 -8.79,50.679 -26.36,68.672 -17.58,17.988 -38.87,26.976 -63.87,26.976 -26.18,0 -47.76,-9.187 -64.75,-27.566 -16.99,-18.383 -25.49,-41.071 -25.49,-68.082 z m -58.88,-0.149 c 0,43.75 14.45,79.641 43.36,107.66 28.89,28.028 64.16,42.047 105.76,42.047 40.82,0 75.88,-13.816 105.17,-41.457 29.3,-27.64 43.95,-63.722 43.95,-108.25 0,-44.531 -14.61,-80.672 -43.81,-108.402 -29.2,-27.731 -64.3,-41.598 -105.31,-41.598 -42.19,0 -77.6,14.059 -106.21,42.188 -28.62,28.121 -42.91,64.062 -42.91,107.812"
         style="fill:#ef372b;fill-opacity:1;fill-rule:nonzero;stroke:none"
         id="path30"
         inkscape:connector-curvature="0" />
      <path
         d="m 3054.34,282.941 c 0,-29.492 9.03,-52.882 27.1,-70.16 18.06,-17.293 38.92,-25.929 62.55,-25.929 24.8,0 46.19,9.179 64.16,27.539 17.97,18.359 26.95,42.968 26.95,73.828 0,29.883 -8.93,53.07 -26.8,69.582 -17.88,16.5 -38.82,24.75 -62.85,24.75 -23.63,0 -44.72,-8.539 -63.28,-25.629 -18.55,-17.094 -27.83,-41.75 -27.83,-73.981 z M 2947.7,141.73 v 49.508 h 50.39 v 308.5 h -50.39 v 49.512 h 104.88 V 385.191 c 27.93,32.028 62.21,48.047 102.84,48.047 39.06,0 71.81,-13.429 98.29,-40.289 26.46,-26.847 39.69,-62.25 39.69,-106.199 0,-42.191 -12.94,-77.68 -38.82,-106.488 -25.88,-28.813 -59.03,-43.223 -99.46,-43.223 -22.65,0 -43.36,4.891 -62.11,14.652 -18.75,9.77 -32.22,20.61 -40.43,32.52 V 141.73 H 2947.7"
         style="fill:#ef372b;fill-opacity:1;fill-rule:nonzero;stroke:none"
         id="path32"
         inkscape:connector-curvature="0" />
      <path
         d="m 3393.87,191.238 v 308.5 h -50.39 v 49.512 h 106.06 V 191.238 h 43.36 V 141.73 h -149.42 v 49.508 h 50.39"
         style="fill:#ef372b;fill-opacity:1;fill-rule:nonzero;stroke:none"
         id="path34"
         inkscape:connector-curvature="0" />
      <path
         d="m 3794.93,309.898 c -3.91,19.922 -14.26,37.942 -31.06,54.051 -16.79,16.11 -37.4,24.172 -61.81,24.172 -22.27,0 -41.31,-7.281 -57.13,-21.832 -15.82,-14.551 -25.49,-33.348 -29.01,-56.391 z m 57.42,-40.429 h -238.48 c 3.52,-26.18 13.87,-47.367 31.06,-63.578 17.18,-16.211 39.16,-24.313 65.91,-24.313 38.87,0 69.63,15.621 92.29,46.871 l 49.22,-21.679 c -16.02,-24.801 -36.82,-43.211 -62.4,-55.219 -25.59,-12.02 -52.35,-18.02 -80.28,-18.02 -43.36,0 -80.42,13.52 -111.18,40.578 -30.76,27.051 -46.14,63.52 -46.14,109.422 0,43.547 14.98,79.387 44.97,107.52 29.98,28.117 64.4,42.187 103.27,42.187 38.09,0 72.61,-13.718 103.57,-41.168 30.94,-27.441 47.02,-68.308 48.19,-122.601"
         style="fill:#ef372b;fill-opacity:1;fill-rule:nonzero;stroke:none"
         id="path36"
         inkscape:connector-curvature="0" />
      <path
         d="m 179.789,779.109 v 33.153 c 29.16,-32.121 83.164,-48.192 162.012,-48.192 84.769,0 150.269,20.621 196.527,61.871 46.25,41.25 69.391,94.231 69.391,158.938 0,45.571 -12.196,84.651 -36.567,117.241 -24.39,32.59 -56.859,55.95 -97.414,70.08 -40.562,14.12 -101.636,28.25 -183.207,42.37 -51.5,9.09 -83.511,16.96 -96.039,23.57 -12.539,6.6 -18.801,16.29 -18.801,29.06 0,33.72 30.532,50.58 91.598,50.58 82.941,0 131.25,-23.02 144.922,-69.04 h 151.082 v 192.09 H 412.211 v -22.9 c -51.945,22.1 -107.777,33.15 -167.481,33.15 -73.828,0 -133.082,-18.8 -177.7261,-56.37 C 22.3359,1357.13 0,1311.01 0,1256.35 c 0,-58.3 23.7109,-105.11 71.1133,-140.41 47.3987,-35.3 124.6487,-61.65 231.7387,-79.05 51.937,-8.71 86.8,-17.84 104.582,-27.41 17.765,-9.57 26.66,-23.019 26.66,-40.332 0,-18.687 -9.696,-34.07 -29.059,-46.136 -19.371,-12.082 -46.375,-18.121 -81.004,-18.121 -40.109,0 -73.832,9.23 -101.172,27.687 -27.347,18.453 -41.699,43.172 -43.07,74.172 H 25.3008 V 779.109 Z m 1127.591,78.61 c 66.31,62.429 99.46,146.741 99.46,252.931 0,107.55 -33.5,192.21 -100.49,253.96 -66.99,61.75 -149.48,92.63 -247.46,92.63 -97.527,0 -179.902,-30.88 -247.117,-92.63 -67.222,-61.75 -100.832,-146.41 -100.832,-253.96 0,-107.56 33.61,-192.201 100.832,-253.951 67.215,-61.758 149.59,-92.629 247.117,-92.629 99.35,0 182.18,31.211 248.49,93.649 m -347.267,120.66 c -21.652,33.491 -32.472,75.981 -32.472,127.491 0,125.78 43.519,188.68 130.569,188.68 40.55,0 72.68,-15.85 96.38,-47.51 23.7,-31.68 35.55,-75.78 35.55,-132.29 0,-64.25 -12.2,-111.42 -36.57,-141.5 -24.39,-30.082 -56.17,-45.121 -95.36,-45.121 -43.75,0 -76.456,16.75 -98.097,50.25 M 2049.42,1440.83 v -54.69 c -61.98,43.29 -128.75,64.94 -200.29,64.94 -89.33,0 -167.6,-30.42 -234.82,-91.26 -67.23,-60.84 -100.83,-143.89 -100.83,-249.17 0,-105.27 34.29,-189.349 102.88,-252.24 68.59,-62.89 160.53,-94.34 275.83,-94.34 153.13,0 260.22,66.649 321.29,199.95 l -164.06,72.12 c -18.22,-31.9 -42.38,-57.538 -72.46,-76.902 -30.08,-19.379 -61.98,-29.058 -95.71,-29.058 -42.38,0 -78.16,14.929 -107.32,44.781 -29.17,29.839 -43.75,75.989 -43.75,138.429 0,51.49 13.78,92.62 41.36,123.39 27.57,30.76 64.6,46.14 111.08,46.14 72.91,0 126.47,-36.92 160.65,-110.74 h 150.39 v 268.65 z m 384.86,108.58 c 22.8,-22.72 49.9,-34.07 81.35,-34.07 31.89,0 59.13,11.24 81.69,33.73 22.57,22.5 33.84,49.65 33.84,81.46 0,31.8 -11.17,59.06 -33.5,81.78 -22.32,22.72 -49.68,34.09 -82.03,34.09 -31.89,0 -59.12,-11.37 -81.69,-34.09 -22.56,-22.72 -33.84,-49.98 -33.84,-81.78 0,-31.36 11.39,-58.4 34.18,-81.12 m -26.66,-261.02 V 931.551 H 2307.13 V 779.109 h 410.16 v 152.442 h -98.44 V 1440.83 H 2307.13 V 1288.39 Z M 3433.7,931.551 v 241.309 c 0,61.06 -4.22,105.16 -12.65,132.28 -8.44,27.1 -22.9,52.06 -43.41,74.85 -20.51,22.78 -51.73,41.36 -93.65,55.71 -41.93,14.36 -94.8,21.54 -158.59,21.54 -164.53,0 -271.39,-52.19 -320.61,-156.55 L 2975,1269.93 c 33.74,34.63 74.28,51.95 121.68,51.95 38.29,0 68.81,-10.83 91.61,-32.47 22.78,-21.65 34.18,-49.33 34.18,-83.05 v -40.34 c -57.43,22.33 -108.25,33.5 -152.45,33.5 -79.29,0 -144.01,-21.43 -194.14,-64.26 -50.13,-42.84 -75.19,-95.94 -75.19,-159.272 0,-62.898 23.81,-113.027 71.43,-150.398 47.62,-37.371 104.25,-56.051 169.88,-56.051 63.34,0 123.49,20.609 180.47,61.859 v -52.289 h 317.87 v 152.442 z m -211.23,38.277 c -49.22,-46.027 -93.42,-69.039 -132.62,-69.039 -25.07,0 -45.58,8.652 -61.52,25.981 -15.96,17.308 -23.93,38.039 -23.93,62.199 0,26.891 9.91,47.401 29.75,61.531 19.81,14.12 41.79,21.19 65.95,21.19 30.53,0 71.32,-15.96 122.37,-47.85 z m 799.12,-190.719 v 152.442 h -95.02 v 798.439 h -315.14 v -152.44 h 103.91 V 931.551 H 3611.43 V 779.109 h 410.16"
         style="fill:#050301;fill-opacity:1;fill-rule:nonzero;stroke:none"
         id="path38"
         inkscape:connector-curvature="0" />
    </g>
  </g>
</svg>
